<mxfile host="app.diagrams.net" agent="Mozilla/5.0 (Windows NT 10.0; Win64; x64) AppleWebKit/537.36 (KHTML, like Gecko) Chrome/131.0.0.0 Safari/537.36" version="25.0.3">
  <diagram name="PÃ¡gina-1" id="n18SbBoXUd99XwQYesBU">
    <mxGraphModel>
      <root>
        <mxCell id="0" />
        <mxCell id="1" parent="0" />
        <mxCell id="2" value="UiPath" style="whiteSpace=wrap;strokeWidth=2;" vertex="1" parent="1">
          <mxGeometry x="558" y="212" width="718" height="205" as="geometry" />
        </mxCell>
        <mxCell id="3" value="Jenkins" style="whiteSpace=wrap;strokeWidth=2;" vertex="1" parent="1">
          <mxGeometry x="358" y="436" width="728" height="192" as="geometry" />
        </mxCell>
        <mxCell id="4" value="GitHub" style="whiteSpace=wrap;strokeWidth=2;" vertex="1" parent="1">
          <mxGeometry x="173" y="648" width="728" height="224" as="geometry" />
        </mxCell>
        <mxCell id="5" value="AWS" style="whiteSpace=wrap;strokeWidth=2;" vertex="1" parent="1">
          <mxGeometry x="8" y="8" width="1460" height="184" as="geometry" />
        </mxCell>
        <mxCell id="6" value="AWS" style="whiteSpace=wrap;strokeWidth=2;" vertex="1" parent="1">
          <mxGeometry x="33" y="102" width="90" height="48" as="geometry" />
        </mxCell>
        <mxCell id="7" value="EC2" style="rounded=1;arcSize=40;strokeWidth=2" vertex="1" parent="1">
          <mxGeometry x="978" y="76" width="57" height="48" as="geometry" />
        </mxCell>
        <mxCell id="8" value="Elastic IP" style="rhombus;strokeWidth=2;whiteSpace=wrap;" vertex="1" parent="1">
          <mxGeometry x="1137" y="43" width="114" height="114" as="geometry" />
        </mxCell>
        <mxCell id="9" value="Route53" style="whiteSpace=wrap;strokeWidth=2;" vertex="1" parent="1">
          <mxGeometry x="1325" y="82" width="118" height="48" as="geometry" />
        </mxCell>
        <mxCell id="10" value="GitHub" style="whiteSpace=wrap;strokeWidth=2;" vertex="1" parent="1">
          <mxGeometry x="198" y="715" width="110" height="48" as="geometry" />
        </mxCell>
        <mxCell id="11" value="Repository" style="rhombus;strokeWidth=2;whiteSpace=wrap;" vertex="1" parent="1">
          <mxGeometry x="383" y="687" width="124" height="124" as="geometry" />
        </mxCell>
        <mxCell id="12" value="Branch" style="rhombus;strokeWidth=2;whiteSpace=wrap;" vertex="1" parent="1">
          <mxGeometry x="587" y="710" width="97" height="97" as="geometry" />
        </mxCell>
        <mxCell id="13" value="Pull Request" style="rhombus;strokeWidth=2;whiteSpace=wrap;" vertex="1" parent="1">
          <mxGeometry x="739" y="700" width="137" height="137" as="geometry" />
        </mxCell>
        <mxCell id="14" value="Jenkins" style="whiteSpace=wrap;strokeWidth=2;" vertex="1" parent="1">
          <mxGeometry x="389" y="480" width="113" height="48" as="geometry" />
        </mxCell>
        <mxCell id="15" value="Build" style="rhombus;strokeWidth=2;whiteSpace=wrap;" vertex="1" parent="1">
          <mxGeometry x="594" y="472" width="84" height="84" as="geometry" />
        </mxCell>
        <mxCell id="16" value="Test" style="rhombus;strokeWidth=2;whiteSpace=wrap;" vertex="1" parent="1">
          <mxGeometry x="769" y="485" width="78" height="78" as="geometry" />
        </mxCell>
        <mxCell id="17" value="Deploy" style="rhombus;strokeWidth=2;whiteSpace=wrap;" vertex="1" parent="1">
          <mxGeometry x="958" y="495" width="98" height="98" as="geometry" />
        </mxCell>
        <mxCell id="18" value="UiPath" style="whiteSpace=wrap;strokeWidth=2;" vertex="1" parent="1">
          <mxGeometry x="583" y="280" width="107" height="48" as="geometry" />
        </mxCell>
        <mxCell id="19" value="Processes" style="rhombus;strokeWidth=2;whiteSpace=wrap;" vertex="1" parent="1">
          <mxGeometry x="750" y="247" width="116" height="116" as="geometry" />
        </mxCell>
        <mxCell id="20" value="Libraries" style="rhombus;strokeWidth=2;whiteSpace=wrap;" vertex="1" parent="1">
          <mxGeometry x="951" y="259" width="111" height="111" as="geometry" />
        </mxCell>
        <mxCell id="21" value="Assets" style="rhombus;strokeWidth=2;whiteSpace=wrap;" vertex="1" parent="1">
          <mxGeometry x="1147" y="288" width="93" height="93" as="geometry" />
        </mxCell>
        <mxCell id="22" value="" style="curved=1;startArrow=none;endArrow=block;exitX=1.01;exitY=0.15;entryX=0;entryY=0.5;" edge="1" parent="1" source="6" target="7">
          <mxGeometry relative="1" as="geometry">
            <Array as="points">
              <mxPoint x="148" y="100" />
            </Array>
          </mxGeometry>
        </mxCell>
        <mxCell id="23" value="" style="curved=1;startArrow=none;endArrow=block;exitX=1;exitY=0.5;entryX=0;entryY=0.5;" edge="1" parent="1" source="7" target="8">
          <mxGeometry relative="1" as="geometry">
            <Array as="points" />
          </mxGeometry>
        </mxCell>
        <mxCell id="24" value="" style="curved=1;startArrow=none;endArrow=block;exitX=0.99;exitY=0.5;entryX=0;entryY=0.41;" edge="1" parent="1" source="8" target="9">
          <mxGeometry relative="1" as="geometry">
            <Array as="points">
              <mxPoint x="1300" y="100" />
            </Array>
          </mxGeometry>
        </mxCell>
        <mxCell id="25" value="" style="curved=1;startArrow=none;endArrow=block;exitX=1;exitY=0.64;entryX=0;entryY=0.5;" edge="1" parent="1" source="10" target="11">
          <mxGeometry relative="1" as="geometry">
            <Array as="points">
              <mxPoint x="333" y="749" />
            </Array>
          </mxGeometry>
        </mxCell>
        <mxCell id="26" value="" style="curved=1;startArrow=none;endArrow=block;exitX=1;exitY=0.56;entryX=0;entryY=0.5;" edge="1" parent="1" source="11" target="12">
          <mxGeometry relative="1" as="geometry">
            <Array as="points">
              <mxPoint x="533" y="759" />
            </Array>
          </mxGeometry>
        </mxCell>
        <mxCell id="27" value="" style="curved=1;startArrow=none;endArrow=block;exitX=1.01;exitY=0.57;entryX=0;entryY=0.5;" edge="1" parent="1" source="12" target="13">
          <mxGeometry relative="1" as="geometry">
            <Array as="points">
              <mxPoint x="714" y="769" />
            </Array>
          </mxGeometry>
        </mxCell>
        <mxCell id="28" value="" style="curved=1;startArrow=none;endArrow=block;exitX=1;exitY=0.64;entryX=0;entryY=0.51;" edge="1" parent="1" source="14" target="15">
          <mxGeometry relative="1" as="geometry">
            <Array as="points">
              <mxPoint x="533" y="514" />
            </Array>
          </mxGeometry>
        </mxCell>
        <mxCell id="29" value="" style="curved=1;startArrow=none;endArrow=block;exitX=1;exitY=0.57;entryX=0;entryY=0.51;" edge="1" parent="1" source="15" target="16">
          <mxGeometry relative="1" as="geometry">
            <Array as="points">
              <mxPoint x="714" y="524" />
            </Array>
          </mxGeometry>
        </mxCell>
        <mxCell id="30" value="" style="curved=1;startArrow=none;endArrow=block;exitX=1;exitY=0.56;entryX=0;entryY=0.44;" edge="1" parent="1" source="16" target="17">
          <mxGeometry relative="1" as="geometry">
            <Array as="points">
              <mxPoint x="901" y="534" />
              <mxPoint x="926" y="534" />
            </Array>
          </mxGeometry>
        </mxCell>
        <mxCell id="31" value="" style="curved=1;startArrow=none;endArrow=block;exitX=0.99;exitY=0.51;entryX=0;entryY=0.5;" edge="1" parent="1" source="18" target="19">
          <mxGeometry relative="1" as="geometry">
            <Array as="points" />
          </mxGeometry>
        </mxCell>
        <mxCell id="32" value="" style="curved=1;startArrow=none;endArrow=block;exitX=1;exitY=0.55;entryX=0;entryY=0.5;" edge="1" parent="1" source="19" target="20">
          <mxGeometry relative="1" as="geometry">
            <Array as="points">
              <mxPoint x="901" y="315" />
            </Array>
          </mxGeometry>
        </mxCell>
        <mxCell id="33" value="" style="curved=1;startArrow=none;endArrow=block;exitX=1;exitY=0.56;entryX=0;entryY=0.44;" edge="1" parent="1" source="20" target="21">
          <mxGeometry relative="1" as="geometry">
            <Array as="points">
              <mxPoint x="1087" y="325" />
              <mxPoint x="1112" y="325" />
            </Array>
          </mxGeometry>
        </mxCell>
        <mxCell id="34" value="" style="curved=1;startArrow=none;endArrow=block;exitX=1.01;exitY=0.9;entryX=0.47;entryY=-0.01;" edge="1" parent="1" source="6" target="10">
          <mxGeometry relative="1" as="geometry">
            <Array as="points">
              <mxPoint x="148" y="156" />
              <mxPoint x="173" y="156" />
            </Array>
          </mxGeometry>
        </mxCell>
        <mxCell id="35" value="" style="curved=1;startArrow=none;endArrow=block;exitX=0.92;exitY=-0.01;entryX=0.4;entryY=1.01;" edge="1" parent="1" source="10" target="14">
          <mxGeometry relative="1" as="geometry">
            <Array as="points">
              <mxPoint x="333" y="697" />
              <mxPoint x="358" y="697" />
            </Array>
          </mxGeometry>
        </mxCell>
        <mxCell id="36" value="" style="curved=1;startArrow=none;endArrow=block;exitX=1;exitY=0.12;entryX=0.39;entryY=1.02;" edge="1" parent="1" source="14" target="18">
          <mxGeometry relative="1" as="geometry">
            <Array as="points">
              <mxPoint x="533" y="476" />
              <mxPoint x="558" y="476" />
            </Array>
          </mxGeometry>
        </mxCell>
        <mxCell id="37" value="" style="curved=1;startArrow=none;endArrow=block;exitX=0.4;exitY=0.01;entryX=1.01;entryY=0.5;" edge="1" parent="1" source="18" target="6">
          <mxGeometry relative="1" as="geometry">
            <Array as="points">
              <mxPoint x="558" y="126" />
            </Array>
          </mxGeometry>
        </mxCell>
        <mxCell id="38" value="" style="curved=1;startArrow=none;endArrow=block;exitX=1;exitY=0.26;entryX=0.29;entryY=1.01;" edge="1" parent="1" source="11" target="15">
          <mxGeometry relative="1" as="geometry">
            <Array as="points">
              <mxPoint x="533" y="707" />
              <mxPoint x="558" y="707" />
            </Array>
          </mxGeometry>
        </mxCell>
        <mxCell id="39" value="" style="curved=1;startArrow=none;endArrow=block;exitX=1;exitY=0.32;entryX=0.24;entryY=1;" edge="1" parent="1" source="15" target="19">
          <mxGeometry relative="1" as="geometry">
            <Array as="points">
              <mxPoint x="714" y="486" />
            </Array>
          </mxGeometry>
        </mxCell>
        <mxCell id="40" value="" style="curved=1;startArrow=none;endArrow=block;exitX=1;exitY=0.3;entryX=0.3;entryY=1;" edge="1" parent="1" source="19" target="7">
          <mxGeometry relative="1" as="geometry">
            <Array as="points">
              <mxPoint x="901" y="268" />
              <mxPoint x="926" y="268" />
            </Array>
          </mxGeometry>
        </mxCell>
        <mxCell id="41" value="" style="curved=1;startArrow=none;endArrow=block;exitX=1.01;exitY=0.23;entryX=0.25;entryY=1.01;" edge="1" parent="1" source="12" target="16">
          <mxGeometry relative="1" as="geometry">
            <Array as="points">
              <mxPoint x="714" y="717" />
            </Array>
          </mxGeometry>
        </mxCell>
        <mxCell id="42" value="" style="curved=1;startArrow=none;endArrow=block;exitX=1;exitY=0.35;entryX=0.28;entryY=1;" edge="1" parent="1" source="16" target="20">
          <mxGeometry relative="1" as="geometry">
            <Array as="points">
              <mxPoint x="901" y="496" />
              <mxPoint x="926" y="496" />
            </Array>
          </mxGeometry>
        </mxCell>
        <mxCell id="43" value="" style="curved=1;startArrow=none;endArrow=block;exitX=1;exitY=0.28;entryX=0.27;entryY=1;" edge="1" parent="1" source="20" target="8">
          <mxGeometry relative="1" as="geometry">
            <Array as="points">
              <mxPoint x="1087" y="278" />
              <mxPoint x="1112" y="278" />
            </Array>
          </mxGeometry>
        </mxCell>
        <mxCell id="44" value="" style="curved=1;startArrow=none;endArrow=block;exitX=1;exitY=0.5;entryX=0;entryY=0.7;" edge="1" parent="1" source="13" target="17">
          <mxGeometry relative="1" as="geometry">
            <Array as="points">
              <mxPoint x="901" y="769" />
              <mxPoint x="926" y="576" />
            </Array>
          </mxGeometry>
        </mxCell>
        <mxCell id="45" value="" style="curved=1;startArrow=none;endArrow=block;exitX=0.99;exitY=0.5;entryX=0;entryY=0.69;" edge="1" parent="1" source="17" target="21">
          <mxGeometry relative="1" as="geometry">
            <Array as="points">
              <mxPoint x="1087" y="544" />
              <mxPoint x="1112" y="365" />
            </Array>
          </mxGeometry>
        </mxCell>
        <mxCell id="46" value="" style="curved=1;startArrow=none;endArrow=block;exitX=1;exitY=0.5;entryX=0.07;entryY=1.01;" edge="1" parent="1" source="21" target="9">
          <mxGeometry relative="1" as="geometry">
            <Array as="points">
              <mxPoint x="1275" y="335" />
              <mxPoint x="1300" y="146" />
            </Array>
          </mxGeometry>
        </mxCell>
      </root>
    </mxGraphModel>
  </diagram>
</mxfile>
